# xmcd CD database file
#
# Track frame offsets:
#	150
#	13500
#	25125
#	37795
#	50175
#	71625
#	84102
#	95647
#	105445
#	116567
#	128987
#	141597
#	152990
#	165965
#
# Disc length: 2367 seconds
#
# Revision: 0
# Processed by: cddbd v1.4PL0 Copyright (c) Steve Scherf et al.
# Submitted via: CDex 1.50beta10
#
DISCID=b2093d0e
DTITLE=Lowell Fulson - Back Home Blues
DYEAR=1991
DGENRE=Blues
TTITLE0=Cold Hearted Mama
TTITLE1=I Love My Baby
TTITLE2=Let's Live Right
TTITLE3=Fulson Boogie (Instrumental)
TTITLE4=Mama Bring Your Clothes Back Home
TTITLE5=Don't Be So Evil
TTITLE6=My Baby Can't Be Found
TTITLE7=Sinner's Prayer
TTITLE8=Upstairs
TTITLE9=Want To See My Baby
TTITLE10=The Day Is Passing On (Instrumental)
TTITLE11=Back Home Blues
TTITLE12=Trying To Find My Baby
TTITLE13=Rock This House
EXTD=YEAR: 1991
EXTT0=
EXTT1=
EXTT2=
EXTT3=
EXTT4=
EXTT5=
EXTT6=
EXTT7=
EXTT8=
EXTT9=
EXTT10=
EXTT11=
EXTT12=
EXTT13=
PLAYORDER=
